<svg xmlns="http://www.w3.org/2000/svg" xmlns:xlink="http://www.w3.org/1999/xlink" viewBox="0 0 2770.45 2772.4"><defs><style>.cls-1{fill:url(#linear-gradient);}.cls-2{fill:url(#linear-gradient-2);}.cls-3{fill:#7d97f4;}.cls-4{fill:url(#linear-gradient-3);}.cls-5{fill:#91b3fa;}.cls-6{fill:url(#linear-gradient-4);}.cls-7{fill:#fff;}.cls-10,.cls-11,.cls-8,.cls-9{opacity:0.7;}.cls-8{fill:url(#linear-gradient-5);}.cls-9{fill:url(#linear-gradient-6);}.cls-10{fill:url(#linear-gradient-7);}.cls-11{fill:url(#linear-gradient-8);}.cls-12{opacity:0.64;}.cls-13{fill:url(#linear-gradient-9);}.cls-14{fill:url(#linear-gradient-10);}.cls-15{fill:url(#linear-gradient-11);}.cls-16{fill:url(#linear-gradient-12);}.cls-17{fill:url(#linear-gradient-13);}.cls-18{fill:url(#linear-gradient-14);}.cls-19{fill:url(#linear-gradient-15);}.cls-20{fill:url(#linear-gradient-16);}.cls-21{fill:url(#linear-gradient-17);}.cls-22{fill:url(#linear-gradient-18);}.cls-23{fill:url(#linear-gradient-19);}.cls-24{fill:url(#linear-gradient-20);}.cls-25{fill:url(#linear-gradient-21);}.cls-26{fill:url(#linear-gradient-22);}.cls-27{fill:url(#linear-gradient-23);}.cls-28{fill:url(#linear-gradient-24);}.cls-29{fill:url(#linear-gradient-25);}.cls-30{fill:url(#linear-gradient-26);}.cls-31{fill:url(#linear-gradient-27);}.cls-32{fill:url(#linear-gradient-28);}.cls-33{fill:url(#linear-gradient-29);}.cls-34{fill:url(#linear-gradient-30);}.cls-35{fill:url(#linear-gradient-31);}.cls-36{fill:url(#linear-gradient-32);}.cls-37{fill:url(#linear-gradient-33);}.cls-38{fill:url(#linear-gradient-34);}.cls-39{fill:url(#linear-gradient-35);}.cls-40{fill:url(#linear-gradient-36);}.cls-41{fill:url(#linear-gradient-37);}.cls-42{fill:url(#linear-gradient-38);}.cls-43{fill:url(#linear-gradient-39);}.cls-44{fill:url(#linear-gradient-40);}.cls-45{fill:url(#linear-gradient-41);}.cls-46{fill:url(#linear-gradient-42);}.cls-47{fill:url(#linear-gradient-43);}.cls-48{fill:url(#linear-gradient-44);}.cls-49{fill:url(#linear-gradient-45);}.cls-50{fill:url(#linear-gradient-46);}.cls-51{fill:url(#linear-gradient-47);}.cls-52{fill:url(#linear-gradient-48);}.cls-53{fill:url(#linear-gradient-49);}.cls-54{fill:url(#linear-gradient-50);}.cls-55{fill:url(#linear-gradient-51);}.cls-56{fill:url(#linear-gradient-52);}.cls-57{fill:url(#linear-gradient-53);}.cls-58{fill:url(#linear-gradient-54);}.cls-59{fill:url(#linear-gradient-55);}.cls-60{fill:url(#linear-gradient-56);}.cls-61{fill:url(#linear-gradient-57);}.cls-62{fill:url(#linear-gradient-58);}.cls-63{fill:url(#linear-gradient-59);}.cls-64{fill:url(#linear-gradient-60);}.cls-65{fill:url(#linear-gradient-61);}.cls-66{fill:url(#linear-gradient-62);}.cls-67{fill:url(#linear-gradient-63);}.cls-68{fill:url(#linear-gradient-64);}.cls-69{fill:url(#linear-gradient-65);}.cls-70{fill:url(#linear-gradient-66);}.cls-71{fill:url(#linear-gradient-67);}.cls-72{fill:url(#linear-gradient-68);}.cls-73{fill:url(#linear-gradient-69);}.cls-74{fill:url(#linear-gradient-70);}.cls-75{fill:url(#linear-gradient-71);}.cls-76{fill:url(#linear-gradient-72);}.cls-77{fill:url(#linear-gradient-73);}.cls-78{fill:url(#linear-gradient-74);}.cls-79{fill:url(#linear-gradient-75);}.cls-80{fill:url(#linear-gradient-76);}.cls-81{fill:#bdd0fb;}.cls-82{fill:url(#linear-gradient-77);}.cls-83{opacity:0.3;}.cls-84{fill:url(#linear-gradient-78);}.cls-85{fill:url(#linear-gradient-79);}.cls-86{fill:url(#linear-gradient-80);}.cls-87{fill:url(#linear-gradient-81);}</style><linearGradient id="linear-gradient" x1="2986.77" y1="2806.54" x2="937.33" y2="1013.28" gradientUnits="userSpaceOnUse"><stop offset="0" stop-color="#dae3fe"/><stop offset="1" stop-color="#e9effd"/></linearGradient><linearGradient id="linear-gradient-2" x1="240.84" y1="1314.23" x2="750.97" y2="1422.25" gradientUnits="userSpaceOnUse"><stop offset="0" stop-color="#4f52ff"/><stop offset="1" stop-color="#4042e2"/></linearGradient><linearGradient id="linear-gradient-3" x1="2065.28" y1="559.51" x2="2029.43" y2="1195.74" xlink:href="#linear-gradient-2"/><linearGradient id="linear-gradient-4" x1="1047.99" y1="817.48" x2="1954.22" y2="2407.87" xlink:href="#linear-gradient-2"/><linearGradient id="linear-gradient-5" x1="1495.36" y1="381.24" x2="1870.85" y2="381.24" xlink:href="#linear-gradient"/><linearGradient id="linear-gradient-6" x1="1495.36" y1="436.48" x2="1870.85" y2="436.48" xlink:href="#linear-gradient"/><linearGradient id="linear-gradient-7" x1="1495.36" y1="491.72" x2="1870.85" y2="491.72" xlink:href="#linear-gradient"/><linearGradient id="linear-gradient-8" x1="1495.36" y1="546.96" x2="1870.85" y2="546.96" xlink:href="#linear-gradient"/><linearGradient id="linear-gradient-9" x1="1899.6" y1="494" x2="2025.6" y2="494" xlink:href="#linear-gradient"/><linearGradient id="linear-gradient-10" x1="2056.17" y1="494" x2="2182.16" y2="494" xlink:href="#linear-gradient"/><linearGradient id="linear-gradient-11" x1="2212.73" y1="494" x2="2338.72" y2="494" xlink:href="#linear-gradient"/><linearGradient id="linear-gradient-12" x1="1899.6" y1="564.65" x2="2025.6" y2="564.65" xlink:href="#linear-gradient"/><linearGradient id="linear-gradient-13" x1="2056.17" y1="564.65" x2="2182.16" y2="564.65" xlink:href="#linear-gradient"/><linearGradient id="linear-gradient-14" x1="2212.73" y1="564.65" x2="2338.72" y2="564.65" xlink:href="#linear-gradient"/><linearGradient id="linear-gradient-15" x1="6198.96" y1="2591.59" x2="5726.94" y2="3105.02" gradientTransform="translate(-4978.33 -59.01) rotate(0.54)" gradientUnits="userSpaceOnUse"><stop offset="0" stop-color="#09005d"/><stop offset="1" stop-color="#1a0f91"/></linearGradient><linearGradient id="linear-gradient-16" x1="6045.75" y1="2629.72" x2="6087.67" y2="2629.72" gradientTransform="translate(-4978.33 -59.01) rotate(0.54)" gradientUnits="userSpaceOnUse"><stop offset="0" stop-color="#febbba"/><stop offset="1" stop-color="#ff928e"/></linearGradient><linearGradient id="linear-gradient-17" x1="6236.15" y1="2010.92" x2="5834.48" y2="2555.33" xlink:href="#linear-gradient-15"/><linearGradient id="linear-gradient-18" x1="6093.07" y1="2494.22" x2="5621.03" y2="3007.67" xlink:href="#linear-gradient-15"/><linearGradient id="linear-gradient-19" x1="5894.64" y1="2627.56" x2="5930.84" y2="2627.56" xlink:href="#linear-gradient-16"/><linearGradient id="linear-gradient-20" x1="6164.56" y1="1958.1" x2="5762.89" y2="2502.51" xlink:href="#linear-gradient-15"/><linearGradient id="linear-gradient-21" x1="5243.33" y1="3367.96" x2="5316.89" y2="3013.54" gradientTransform="matrix(-1, 0, 0, 1, 6630.11, 0)" gradientUnits="userSpaceOnUse"><stop offset="0" stop-color="#ff928e"/><stop offset="1" stop-color="#fe7062"/></linearGradient><linearGradient id="linear-gradient-22" x1="6218.33" y1="1535.86" x2="6432.54" y2="1535.86" xlink:href="#linear-gradient-16"/><linearGradient id="linear-gradient-23" x1="1430.79" y1="1493.83" x2="1455.31" y2="1331.11" gradientTransform="matrix(1, 0, 0, 1, 0, 0)" xlink:href="#linear-gradient-16"/><linearGradient id="linear-gradient-24" x1="6431.51" y1="1391.04" x2="6491.49" y2="1298.83" xlink:href="#linear-gradient-16"/><linearGradient id="linear-gradient-25" x1="5445.09" y1="3409.83" x2="5518.65" y2="3055.41" xlink:href="#linear-gradient-21"/><linearGradient id="linear-gradient-26" x1="5749.59" y1="1839.25" x2="6020.67" y2="1839.25" xlink:href="#linear-gradient-16"/><linearGradient id="linear-gradient-27" x1="5957.75" y1="1549.46" x2="6064.93" y2="1549.46" xlink:href="#linear-gradient-16"/><linearGradient id="linear-gradient-28" x1="-1227.91" y1="2542.79" x2="-1267.96" y2="2410.69" gradientTransform="matrix(0.75, -0.66, 0.66, 0.75, 346.59, -1241.76)" xlink:href="#linear-gradient-16"/><linearGradient id="linear-gradient-29" x1="-1264.04" y1="2312.62" x2="-1230.53" y2="2503.71" gradientTransform="matrix(0.75, -0.66, 0.66, 0.75, 346.59, -1241.76)" xlink:href="#linear-gradient-15"/><linearGradient id="linear-gradient-30" x1="-1268.85" y1="2542.17" x2="-1304.88" y2="2423.32" gradientTransform="matrix(0.75, -0.66, 0.66, 0.75, 346.59, -1241.76)" xlink:href="#linear-gradient-16"/><linearGradient id="linear-gradient-31" x1="5803.22" y1="1662.62" x2="5952.8" y2="2285.87" gradientTransform="translate(-4705.66)" xlink:href="#linear-gradient-15"/><linearGradient id="linear-gradient-32" x1="5700.72" y1="1827.5" x2="5785.47" y2="1827.5" gradientTransform="translate(-4705.66)" xlink:href="#linear-gradient-16"/><linearGradient id="linear-gradient-33" x1="1051.87" y1="1727.39" x2="1233.73" y2="1727.39" xlink:href="#linear-gradient"/><linearGradient id="linear-gradient-34" x1="803.85" y1="2378.46" x2="758.71" y2="2690.35" xlink:href="#linear-gradient-2"/><linearGradient id="linear-gradient-35" x1="684.81" y1="2646.36" x2="729.51" y2="2646.36" gradientTransform="matrix(1, 0, 0, 1, 0, 0)" xlink:href="#linear-gradient-16"/><linearGradient id="linear-gradient-36" x1="1027.45" y1="2410.82" x2="982.3" y2="2722.71" xlink:href="#linear-gradient-2"/><linearGradient id="linear-gradient-37" x1="1194.23" y1="2011.31" x2="692.71" y2="2382.43" gradientTransform="matrix(1, 0, 0, 1, 0, 0)" xlink:href="#linear-gradient-15"/><linearGradient id="linear-gradient-38" x1="896.54" y1="2650.12" x2="949.91" y2="2650.12" gradientTransform="matrix(1, 0, 0, 1, 0, 0)" xlink:href="#linear-gradient-16"/><linearGradient id="linear-gradient-39" x1="697.02" y1="2394.67" x2="1332.3" y2="1956.65" gradientTransform="matrix(1, 0, 0, 1, 0, 0)" xlink:href="#linear-gradient-15"/><linearGradient id="linear-gradient-40" x1="600.09" y1="1898.07" x2="626.41" y2="1831.72" gradientTransform="matrix(1, 0, 0, 1, 0, 0)" xlink:href="#linear-gradient-16"/><linearGradient id="linear-gradient-41" x1="777.28" y1="1699.93" x2="693.69" y2="1913.92" gradientTransform="matrix(1, 0, 0, 1, 0, 0)" xlink:href="#linear-gradient-21"/><linearGradient id="linear-gradient-42" x1="623.43" y1="1406.07" x2="598.35" y2="2223.54" gradientUnits="userSpaceOnUse"><stop offset="0" stop-color="#e1473d"/><stop offset="1" stop-color="#e9605a"/></linearGradient><linearGradient id="linear-gradient-43" x1="824.89" y1="2156.11" x2="948.16" y2="2156.11" gradientTransform="matrix(1, 0, 0, 1, 0, 0)" xlink:href="#linear-gradient-16"/><linearGradient id="linear-gradient-44" x1="2552.39" y1="2242.45" x2="2420.28" y2="2343.54" gradientTransform="translate(-2142.87 -126.7) rotate(-7.5)" xlink:href="#linear-gradient-16"/><linearGradient id="linear-gradient-45" x1="2459.58" y1="2162.66" x2="2579.2" y2="2316.68" gradientTransform="translate(-2142.87 -126.7) rotate(-7.5)" xlink:href="#linear-gradient-15"/><linearGradient id="linear-gradient-46" x1="2536" y1="2221.04" x2="2403.89" y2="2322.12" gradientTransform="translate(-2142.87 -126.7) rotate(-7.5)" xlink:href="#linear-gradient-16"/><linearGradient id="linear-gradient-47" x1="15104.24" y1="-17743.54" x2="14774.55" y2="-17424.79" gradientTransform="matrix(-1.39, -0.07, -0.07, 1.39, -5843.56, -425.25)" xlink:href="#linear-gradient-15"/><linearGradient id="linear-gradient-48" x1="12053.75" y1="-17914.81" x2="11724.07" y2="-17596.08" gradientTransform="matrix(0.65, -1.23, -1.23, -0.65, 8044.93, -6808.31)" xlink:href="#linear-gradient-15"/><linearGradient id="linear-gradient-49" x1="1470.42" y1="2461.12" x2="1655.13" y2="2461.12" gradientTransform="matrix(1, 0, 0, 1, 0, 0)" xlink:href="#linear-gradient-16"/><linearGradient id="linear-gradient-50" x1="1583.44" y1="2581.48" x2="1556.27" y2="2998.05" xlink:href="#linear-gradient-2"/><linearGradient id="linear-gradient-51" x1="1253.54" y1="2473.73" x2="1643.32" y2="2473.73" gradientTransform="matrix(1, 0, 0, 1, 0, 0)" xlink:href="#linear-gradient-16"/><linearGradient id="linear-gradient-52" x1="1494.05" y1="2270.4" x2="1930.71" y2="2270.4" gradientTransform="matrix(1, 0, 0, 1, 0, 0)" xlink:href="#linear-gradient-15"/><linearGradient id="linear-gradient-53" x1="1321.27" y1="2564.38" x2="1294.1" y2="2980.96" xlink:href="#linear-gradient-2"/><linearGradient id="linear-gradient-54" x1="1801.63" y1="1541.07" x2="1737.33" y2="1878.86" gradientTransform="matrix(1, 0, 0, 1, 0, 0)" xlink:href="#linear-gradient-15"/><linearGradient id="linear-gradient-55" x1="2231.21" y1="900.51" x2="1983.79" y2="1502.36" gradientTransform="matrix(1, 0, 0, 1, 0, 0)" xlink:href="#linear-gradient-21"/><linearGradient id="linear-gradient-56" x1="1695.23" y1="1963.69" x2="1668.92" y2="1794.86" gradientTransform="matrix(1, 0, 0, 1, 0, 0)" xlink:href="#linear-gradient-16"/><linearGradient id="linear-gradient-57" x1="-953.69" y1="5553.05" x2="-781.47" y2="5670.03" gradientTransform="translate(-2296.27 -2330.33) rotate(-52.83)" xlink:href="#linear-gradient-16"/><linearGradient id="linear-gradient-58" x1="-838.81" y1="5413.13" x2="-903.11" y2="5750.93" gradientTransform="translate(-2296.27 -2330.33) rotate(-52.83)" xlink:href="#linear-gradient-15"/><linearGradient id="linear-gradient-59" x1="-943.37" y1="5537.85" x2="-771.15" y2="5654.83" gradientTransform="translate(-2296.27 -2330.33) rotate(-52.83)" xlink:href="#linear-gradient-16"/><linearGradient id="linear-gradient-60" x1="1803.27" y1="2155.38" x2="2169.42" y2="2155.38" gradientTransform="matrix(1, 0, 0, 1, 0, 0)" xlink:href="#linear-gradient-16"/><linearGradient id="linear-gradient-61" x1="1718.73" y1="2284.11" x2="1488.23" y2="2347.29" gradientTransform="translate(-19.28 -78.79) rotate(-2.83)" xlink:href="#linear-gradient-15"/><linearGradient id="linear-gradient-62" x1="1498.26" y1="1968.77" x2="1334.71" y2="2141.63" gradientTransform="matrix(1, 0, 0, 1, 0, 0)" xlink:href="#linear-gradient-15"/><linearGradient id="linear-gradient-63" x1="-9669.01" y1="2970.8" x2="-9666.59" y2="3226.79" gradientTransform="matrix(-1, 0, 0, 1, -7658.83, 0)" xlink:href="#linear-gradient-15"/><linearGradient id="linear-gradient-64" x1="-9730.71" y1="2684.93" x2="-9743.99" y2="2581.09" gradientTransform="matrix(-1, 0, 0, 1, -7658.83, 0)" xlink:href="#linear-gradient-16"/><linearGradient id="linear-gradient-65" x1="-10014.86" y1="2974.06" x2="-10012.44" y2="3230.05" gradientTransform="matrix(-1, 0, 0, 1, -7658.83, 0)" xlink:href="#linear-gradient-15"/><linearGradient id="linear-gradient-66" x1="-10021.01" y1="2720.52" x2="-10033.96" y2="2619.33" gradientTransform="matrix(-1, 0, 0, 1, -7658.83, 0)" xlink:href="#linear-gradient-16"/><linearGradient id="linear-gradient-67" x1="-10111.46" y1="2336.01" x2="-9713.07" y2="2336.01" gradientTransform="matrix(-1, 0, 0, 1, -7658.83, 0)" xlink:href="#linear-gradient-15"/><linearGradient id="linear-gradient-68" x1="2610.87" y1="1357.01" x2="2513.9" y2="1490.76" gradientTransform="matrix(1, 0, 0, 1, 0, 0)" xlink:href="#linear-gradient-21"/><linearGradient id="linear-gradient-69" x1="2617.41" y1="1179.45" x2="2072.41" y2="1838.14" xlink:href="#linear-gradient-42"/><linearGradient id="linear-gradient-70" x1="2384.42" y1="1872.04" x2="2088.53" y2="2188" gradientTransform="matrix(1, 0, 0, 1, 0, 0)" xlink:href="#linear-gradient-16"/><linearGradient id="linear-gradient-71" x1="-9756.02" y1="1828.51" x2="-9417.25" y2="1828.51" gradientTransform="matrix(-1, 0, 0, 1, -7658.83, 0)" xlink:href="#linear-gradient-16"/><linearGradient id="linear-gradient-72" x1="-9877.98" y1="1638.5" x2="-9760.08" y2="1517.54" gradientTransform="matrix(-1, 0, 0, 1, -7658.83, 0)" xlink:href="#linear-gradient-16"/><linearGradient id="linear-gradient-73" x1="-9707" y1="1441.33" x2="-9853.99" y2="1635.79" gradientTransform="matrix(-1, 0, 0, 1, -7658.83, 0)" xlink:href="#linear-gradient-16"/><linearGradient id="linear-gradient-74" x1="-9819.26" y1="1488.24" x2="-9643.67" y2="1488.24" gradientTransform="matrix(-1, 0, 0, 1, -7658.83, 0)" xlink:href="#linear-gradient-15"/><linearGradient id="linear-gradient-75" x1="-9922.28" y1="1595.32" x2="-9804.38" y2="1474.36" gradientTransform="matrix(-1, 0, 0, 1, -7658.83, 0)" xlink:href="#linear-gradient-16"/><linearGradient id="linear-gradient-76" x1="2725.09" y1="1268.55" x2="2180.08" y2="1927.23" xlink:href="#linear-gradient-42"/><linearGradient id="linear-gradient-77" x1="-3063.86" y1="-14104.39" x2="-3309.68" y2="-13506.45" gradientTransform="matrix(-1, 0, 0, 1, -7658.83, 0)" xlink:href="#linear-gradient-2"/><linearGradient id="linear-gradient-78" x1="905.95" y1="391.34" x2="1041.43" y2="391.34" xlink:href="#linear-gradient"/><linearGradient id="linear-gradient-79" x1="806.22" y1="390.26" x2="1139.31" y2="390.26" xlink:href="#linear-gradient"/><linearGradient id="linear-gradient-80" x1="1374.25" y1="670.86" x2="1466.55" y2="670.86" xlink:href="#linear-gradient"/><linearGradient id="linear-gradient-81" x1="1304.89" y1="670.11" x2="1534.69" y2="670.11" xlink:href="#linear-gradient"/></defs><title>Asset 1</title><g id="Layer_2" data-name="Layer 2"><g id="Illustration"><path class="cls-1" d="M2638.47,1875.22c-264.87,623.66-970.42,973-1582.28,878.8-99.56-15.34-372.51-61-614.17-276.53C-23.19,2062.61-122.68,1241.11,252.59,662.18,525.73,240.81,1015.34,2,1480.57,13.91c100.21,2.57,484.26,18.43,821.78,296.74,49.57,40.88,158.91,138,257.46,292.12C2791.2,964.62,2811.09,1468.77,2638.47,1875.22Z"/><path class="cls-2" d="M191.6,898.9l185.86,203.44c-116.3,87.73-189.25,259.87,5.43,464.58L121.16,1693.78C-62.27,1372.56-36.34,1118.73,191.6,898.9Z"/><path class="cls-3" d="M82.13,1620l180.32,2.9,32.38-177.59c99,203.42,333.09,288.43,600.9,201.66L1031,1898.34C644.45,2074.55,253.19,1984.12,82.13,1620Z"/><path class="cls-4" d="M1594.36,1351.25c146.17-288.92,532-395.49,809.39-237.28l281.2-93.08c-328.44-438.14-925.24-355-1296,82.82Z"/><path class="cls-5" d="M2243.07,1657.08l119.31,278.71c435.34-181.33,567.07-795.33,174-1065.85l2.86,180.59-185,38.49C2626.72,1218.26,2505.31,1584.52,2243.07,1657.08Z"/><path class="cls-3" d="M1466,1735.94c412.44,296.62,773.32,335.3,1061.08,99.59l-202.53-72,56.37-180.39c-252.54,175.27-487.24,118.24-712.54-61.22Z"/><path class="cls-3" d="M191.6,898.9v195.39l185.86,8c120.52-78.18,295-71.87,514.72-1.57l127.66-283C686,674.79,412.35,708.92,191.6,898.9Z"/><path class="cls-6" d="M892.19,1100.77,787.78,883.28l232.07-65.54c150.75,78.63,272.16,174.93,369.12,286,106.73,235,253.2,435.65,436.39,521.27l-240.41,2.53,37,209.71c-94.2-56.41-185.1-119.73-265.08-188.76l-180.53-321C1113.38,1231.88,1025.57,1154,892.19,1100.77Z"/><path class="cls-5" d="M1389,1103.71c-70.62,75.51-116.85,186.83-183.21,265.93-105.84,126.16-237.83,289.16-476,310.37l194.45,100.61L808.43,1970.43c388.43-77.2,660.21-330.57,785.93-619.18V1073.48Z"/><path class="cls-3" d="M1454.91,295.78l945.44-4.13a16.2,16.2,0,0,1,16.35,16.3l-2,330.93A16.19,16.19,0,0,1,2398,655c-83.37-2.49-937.84-13.45-954.18-12.77-16.15.68-7.37-260.66-5-330.79A16.19,16.19,0,0,1,1454.91,295.78Z"/><path class="cls-7" d="M2398.5,642.17h-.11c-53.28-1.59-563.88-8-809.27-11-71.75-.89-122.68-1.53-136.26-1.72l-1.27,0-.22-1.25c-5.8-32.72-5.7-142.09.29-316.31a3.38,3.38,0,0,1,3.36-3.27l945.44-4.13a3.39,3.39,0,0,1,2.43,1,3.31,3.31,0,0,1,1,2.41l-2,330.93A3.39,3.39,0,0,1,2398.5,642.17Zm-944.32-15.8c15.27.21,65.31.84,135,1.7,245.39,3.06,756,9.44,809.32,11h.09a.34.34,0,0,0,.23-.33l2-330.93-.35-1.86v1.53L1455,311.65a.32.32,0,0,0-.32.31C1448.82,483.79,1448.63,592.39,1454.18,626.38Z"/><path class="cls-8" d="M1495.36,381.24h0c0,8.95,3,16.2,6.67,16.2h362.15c3.68,0,6.67-7.25,6.67-16.2h0c0-8.95-3-16.2-6.67-16.2H1502C1498.34,365,1495.36,372.29,1495.36,381.24Z"/><path class="cls-9" d="M1495.36,436.48h0c0,8.95,3,16.2,6.67,16.2h362.15c3.68,0,6.67-7.25,6.67-16.2h0c0-8.95-3-16.2-6.67-16.2H1502C1498.34,420.27,1495.36,427.53,1495.36,436.48Z"/><path class="cls-10" d="M1495.36,491.72h0c0,8.95,3,16.2,6.67,16.2h362.15c3.68,0,6.67-7.25,6.67-16.2h0c0-8.95-3-16.2-6.67-16.2H1502C1498.34,475.51,1495.36,482.77,1495.36,491.72Z"/><path class="cls-11" d="M1495.36,547h0c0,8.95,3,16.2,6.67,16.2h362.15c3.68,0,6.67-7.25,6.67-16.2h0c0-8.95-3-16.2-6.67-16.2H1502C1498.34,530.75,1495.36,538,1495.36,547Z"/><circle class="cls-7" cx="1962.6" cy="392.65" r="63"/><circle class="cls-7" cx="2119.16" cy="392.65" r="63"/><circle class="cls-7" cx="2275.73" cy="394.72" r="63"/><path class="cls-3" d="M2000,379.34a40.47,40.47,0,1,1-37.43-25.09q1,0,2,.05V344c-.68,0-1.36,0-2,0a50.68,50.68,0,1,0,46.84,31.25Z"/><path class="cls-3" d="M2140,429a40.46,40.46,0,1,1-21.56-74.7q1,0,2,.05V344c-.68,0-1.36,0-2,0a50.71,50.71,0,1,0,26.65,93.87Z"/><path class="cls-3" d="M2309.5,417.47A40.46,40.46,0,1,1,2276,354.25q1,0,2,.05V344c-.68,0-1.36,0-2,0a50.71,50.71,0,1,0,41.77,79.48Z"/><g class="cls-12"><path class="cls-13" d="M2013.93,482.34H1911.27a11.67,11.67,0,1,0,0,23.33h102.66a11.67,11.67,0,1,0,0-23.33Z"/><path class="cls-14" d="M2170.49,482.34H2067.83a11.67,11.67,0,0,0,0,23.33h102.66a11.67,11.67,0,1,0,0-23.33Z"/><path class="cls-15" d="M2224.4,505.67h102.66a11.67,11.67,0,0,0,0-23.33H2224.4a11.67,11.67,0,1,0,0,23.33Z"/><rect class="cls-16" x="1899.6" y="518.63" width="125.99" height="92.04" rx="11.67" ry="11.67"/><rect class="cls-17" x="2056.17" y="518.63" width="125.99" height="92.04" rx="11.67" ry="11.67"/><rect class="cls-18" x="2212.73" y="518.63" width="125.99" height="92.04" rx="11.67" ry="11.67"/></g><path class="cls-19" d="M1046.44,2628.29s-5.15,27.63-7.81,55a18.88,18.88,0,0,0,17.86,20.62c36.47,1.87,114.48,5.57,142.49,4.58a6.14,6.14,0,0,0,5.48-8.36h0a13.75,13.75,0,0,0-7-7.48l-128.34-60.47Z"/><path class="cls-20" d="M1042.59,2612l3.61,33.14s22.48,10.73,38-1l-9-37Z"/><path class="cls-21" d="M1051.48,1989.68c-1.78,8.63-13.22,431.3,30.16,621.18a6.43,6.43,0,0,1-3.84,7.44,112,112,0,0,1-36.87,7.13,11.08,11.08,0,0,1-10.91-8.05c-12.5-44.08-72.29-264.89-78.36-475.34-6.78-235.16.08-8,.08-8l6.68-145.26Z"/><path class="cls-22" d="M898,2641.31s-7.91,13.9-15.8,51a11.52,11.52,0,0,0,10,13.89c12,1.3,30.57,3,45.42,3a11.48,11.48,0,0,0,11.49-12.7c-1.52-13.57-6.43-35.85-22.1-53.33Z"/><path class="cls-23" d="M891.59,2598.67l8.7,50.15s9,6.84,27,2.11l-3.87-53.9Z"/><path class="cls-24" d="M872.5,2000.94c-39.09,222.69,2.76,551.34,17.31,615.73a10,10,0,0,0,8,7.68c6.76,1.19,17.9,2.21,28.92-.88a9.18,9.18,0,0,0,6.68-8.39c2.53-51.92,1.91-370.8,37.55-496.48a28.63,28.63,0,0,1,11.19-15.69l67.29-46.88,5.86-76.76Z"/><path class="cls-25" d="M1112,1580.57c-110.74-2.89-233.24,26.86-233.24,26.86-34.85,192.32-9.73,414.77-9.73,414.77,85.53,23.3,182.6-12,182.6-12,15-80.38,83.67-306.35,83.67-306.35,54.18-6.2,98.91-21.39,135.81-41.68-27.69-32.73-40.5-74.15-46-98.62C1185.87,1575.34,1146.18,1581.46,1112,1580.57Z"/><path class="cls-26" d="M1440.73,1420.55c-10.75-13.25-24.58-7.16-24.58-7.16-17,68.69-102.95,123.7-191,150.15,5.5,24.47,18.31,65.9,46,98.62C1417.64,1581.63,1440.73,1420.55,1440.73,1420.55Z"/><path class="cls-27" d="M1438.06,1423.87c1.1,3.63-12.13,9-19.75-5.86-.2-7.1-4.23-37.53.07-43.27,22.87-30.56,67-68.73,67-68.73,7.33,7.37,1.17,14.48,1.17,14.48l-21.45,21.92c4.37,8.07,9.72,14.89,12.16,24.63a29.76,29.76,0,0,1-3.18,21.87c-3.79,6.68-9,15.36-13.83,22.15C1451,1423.9,1438.06,1423.87,1438.06,1423.87Z"/><path class="cls-28" d="M1455.68,1356.67l-19.51,16.22-6.23,16.27,17.07,19.3s6.11-32.35,10.49-39.32S1459.68,1358.76,1455.68,1356.67Z"/><path class="cls-29" d="M920.25,1715.08l-41.46-107.65s-104.12,69.3-122,158.26c19.53,1.63,55.05,7,89.7,25C854.56,1748.64,920.25,1715.08,920.25,1715.08Z"/><path class="cls-30" d="M1009.69,1816.85s-116.78,64.53-155.43,8.11c-8-11.72-9.86-23.3-7.75-34.31-34.65-17.91-70.17-23.34-89.7-25-5.39,26.82-2.95,55.42,12.57,84.45,67.45,126.23,255.42-4.5,255.42-4.5Z"/><path class="cls-31" d="M1000.7,1489.58l-36.21,101.58a3.67,3.67,0,0,0,1.63,4.44c9.56,5.4,44,21.08,86-5a17.29,17.29,0,0,0,8.08-12.27l12.25-88.1Z"/><path class="cls-32" d="M1078.28,1395.94s38,73.21,32.76,102.59-53.18,26.81-94.83,2.51l-28.51-78.93Z"/><path class="cls-33" d="M1018.43,1462.43a3,3,0,0,0,1.35-4.38c-3.06-4.77-8.77-14.48-10.55-23,0,0-6.91-4.52,17.8-10.19s61.59-14.48,69.52-35.4c7.73-20.4-11.58-72.06-43.57-31.35a3,3,0,0,1-4.76,0c-5.11-6.79-18.6-20.91-37.58-12.61-17.77,7.77-19.88,20.71-19.7,27.25a3,3,0,0,1-3.57,3c-8.93-1.79-30.38-3.46-40.61,18.46-8.42,18.06-3.16,28.38,1.68,33.44a3,3,0,0,1-1.33,5c-5.9,1.74-13.53,6.66-12.91,20.44.87,19.05,22.17,17.58,28.24,16.77a3,3,0,0,1,2.66,1c5.14,5.8,28.32,30.44,53.64,33.63a3,3,0,0,0,3.21-4l-10.66-32a3,3,0,0,1,1.67-3.72Z"/><path class="cls-34" d="M1022.79,1467s-27.37-19.17-29.54-3.27,24.59,23.3,37.94,17.49Z"/><path class="cls-35" d="M985.82,1918.84l63.61-222.15a6.48,6.48,0,0,1,5.48-4.66c11.53-1.34,44.92-5.12,83.48-8.38,46.45-3.93,100.38-7.11,132.62-4.4a6.5,6.5,0,0,1,5.31,9.35c-18.33,37.08-93.72,187.92-131.48,237.33a6.52,6.52,0,0,1-5.25,2.57L992,1927.13A6.5,6.5,0,0,1,985.82,1918.84Z"/><path class="cls-36" d="M1001.19,1865.17s-8.86-36.44-5.29-49.36,10.5-29.55,33.58-25.85,50.32,13.42,50.32,13.42-1.38,16.84-18.92,11.41l10.88,8.42s-1.56,13.48-16.37,6.28l10.12,11.16s-6.36,11.07-17.27,4S1032.11,1869.56,1001.19,1865.17Z"/><circle class="cls-5" cx="1152.83" cy="1749.96" r="18.67"/><path class="cls-37" d="M1056.63,1762.27l-4.76-1.41,13-43.93a20,20,0,0,1,15.07-14c41.05-8.57,149.17-10.32,153.75-10.39l.08,5c-1.12,0-112.23,1.81-152.82,10.28a15.07,15.07,0,0,0-11.32,10.57Z"/><path class="cls-3" d="M303.79,2384c-6.78,10-33.73,237.22-37.95,321.12a9.92,9.92,0,0,0,9.93,10.4h0a9.94,9.94,0,0,0,9.82-8.41l49.29-315.89Z"/><path class="cls-3" d="M520.47,2384c6.78,10,33.73,237.22,37.95,321.12a9.92,9.92,0,0,1-9.93,10.4h0a9.94,9.94,0,0,1-9.82-8.41L489.37,2391.2Z"/><path class="cls-3" d="M263,2366.24l0,2.48c-.16,17.82,15.19,32.44,34.42,32.77l227.85,3.88c18.95.32,34.74-13.37,35.66-30.92l.12-2.27c1-18.3-14.58-33.72-34.34-34.07L298.76,2334C279.25,2333.67,263.18,2348.15,263,2366.24Z"/><path class="cls-3" d="M743,2696.84c-40.5,0-58.42-3.47-66.44-6.64a15.37,15.37,0,0,0,15,11.9H834.81a7,7,0,0,0,6.72-8.8C825.2,2694.61,790.5,2696.84,743,2696.84Z"/><path class="cls-38" d="M841.53,2693.3a6.76,6.76,0,0,0-1.17-2.44c-10.92-13.94-32.84-35.82-62.67-35.4-43.69.61-58.93,5.35-92.88.27l-8,26.55a15.24,15.24,0,0,0-.24,7.92c8,3.17,25.93,6.64,66.44,6.64C790.5,2696.84,825.2,2694.61,841.53,2693.3Z"/><path class="cls-39" d="M694.64,2627.12l-9.83,33.44s21.78,9.92,40.94,2l3.76-29Z"/><path class="cls-3" d="M991.62,2675.78c-31.57,25.37-47.71,33.9-55.93,36.46a15.35,15.35,0,0,0,19.09-.14l111.7-89.75a6.94,6.94,0,0,0-.25-11C1054.31,2622.57,1028.66,2646,991.62,2675.78Z"/><path class="cls-40" d="M1066.23,2611.32a6.72,6.72,0,0,0-2.44-1.16c-17.2-4-47.93-7.22-70.92,11.79-33.68,27.84-42.6,41.06-72.24,58.38l10.31,25.62a15.09,15.09,0,0,0,4.75,6.3c8.22-2.56,24.36-11.09,55.93-36.46C1028.66,2646,1054.31,2622.57,1066.23,2611.32Z"/><path class="cls-41" d="M484.31,2246.12s242.49,19.8,292.24,43.22S736,2641,736,2641s-13.54,6.52-43.68-2.85c0,0,30.9-242.21,7.91-294.73l-262.56-42.95Z"/><path class="cls-42" d="M896.54,2634.22c2.25,2.05,24.09,46.1,24.09,46.1s24.32-5.26,29.27-20.65L928,2619.92Z"/><path class="cls-43" d="M338.25,2244.09a122.8,122.8,0,0,0-7.58,44.28c.45,34.95,28.54,63.3,63.45,65l286.67,13.07a13.75,13.75,0,0,1,12.69,10.33c6.74,26.06,39.66,106.07,200.62,265.74a13,13,0,0,0,16.05,1.75l22.91-14.47a5.28,5.28,0,0,0,1.74-7.13l-166.91-285a64.6,64.6,0,0,0-39.25-29.11l-244.33-62.46Z"/><path class="cls-44" d="M620.76,1798.85s-30.71,54.3-62,80.6l64.72,36.11s14.58-57.48,47.9-74.31Z"/><path class="cls-45" d="M333,2246.12s77.39,18.86,151.26,0c0,0,103.36-139,143.35-176.77,0,0,63.79,100.65,205.76,114.92l7.92-17.69s-113-52.1-147.82-132.16-48.77-114.2-80.43-135.09c-19.72-13-31.52-21.9-37.62-26.75a10.12,10.12,0,0,0-11.59-.74C530.28,1892.31,372.2,2000.58,333,2246.12Z"/><path class="cls-46" d="M623.46,2067.39a5,5,0,0,1-3.94-1.94c-24.65-32.13-38.37-67.56-38.94-69a5,5,0,0,1,9.27-3.56c.14.35,13.81,35.61,37.55,66.56a5,5,0,0,1-3.94,8Z"/><path class="cls-47" d="M824.89,2157.33l16-4.26,48.52-11.24a22.5,22.5,0,0,1,17.05,2.88L948.16,2171l-115.21-.19Z"/><path class="cls-48" d="M669.52,1717.44s29.84,49.61,35,77S718,1839,686.83,1848.8s-60.21-2.6-78.41-28.19c0,0-28.43-39.39-25.59-57.43S669.52,1717.44,669.52,1717.44Z"/><path class="cls-49" d="M616.73,1799.39l4-.53s-21.13-31.93-7.3-39.85,70.18-27.36,80-49.55c9.43-21.39-4.68-45.56-21.69-50.61a2.17,2.17,0,0,0-2.6,1.37l-1,2.69a2.19,2.19,0,0,1-4.06.12h0a2.18,2.18,0,0,0-4-.08c-3,6.65-12.05,18-39.15,26.79-38.45,12.47-62.4,31.85-59.46,59.17a2.19,2.19,0,0,1-3.12,2.22c-3.14-1.39-7.91-1.61-13.44,4.44-9.62,10.52-2.08,33.54,24.2,49.83a2.18,2.18,0,0,1,.35,3.49c-3.93,3.37-9.46,10.87,8.32,17.56,18.19,6.84,28.11,4.53,31.78,3.06a2.19,2.19,0,0,0,1.35-2.46l-4.67-23.94a2.19,2.19,0,0,1,1.86-2.59Z"/><path class="cls-50" d="M618.38,1804.3s-13.17-32.47-27-21.06,12.78,36.64,25.07,36.3Z"/><path class="cls-51" d="M780.37,2193.56h.57l246.13-.25a11,11,0,1,0,0-22l-246.13.25a11,11,0,0,0-.54,22Z"/><path class="cls-52" d="M1122.39,1952.52c-.09.17-.17.34-.25.51l-103.56,223.28a11,11,0,1,0,20,9.25l103.56-223.28a11,11,0,0,0-19.7-9.76Z"/><rect class="cls-3" x="1740.93" y="2417.96" width="25.98" height="280.94"/><path class="cls-3" d="M1867.69,2704.31H1640.16a16.91,16.91,0,0,1,16.91-16.91h193.71a16.91,16.91,0,0,1,16.91,16.91Z"/><rect class="cls-3" x="1615.38" y="2355.01" width="286.07" height="81.13" rx="27.94" ry="27.94"/><path class="cls-53" d="M1562.14,2230.64s-38.6,6-82,35a21.63,21.63,0,0,0-9.55,20.68c5.2,41.17,26.56,174.41,97,304.54a32.76,32.76,0,0,1,3.14,22.48l-12.24,57-22.7,21.29h58.47l38.93-105.36-16.65-5.26a31.5,31.5,0,0,1-22-29.49l-2-113c1.67-50.35-30.88-85.1-30.88-85.1l93.38-4.54Z"/><path class="cls-54" d="M1513,2701.87c-5.33,7,57.32,16.17,89,.92,0,0,43.87-76.33,43.87-115.63,0,0-3.48-8-29.24-6.2,0,0-14.73,90.38-30.28,100.5s-43.52,1-43.52,1S1520.84,2691.59,1513,2701.87Z"/><path class="cls-55" d="M1643.32,2355c-.5-.86-100.54-12-100.54-12s3.27,30.42-7,72.29-157.12,223.3-157.12,223.3l15.4,48.82c-47.62,16.59-94.46,19.24-140.56,8.46l95.45-57.28s89.33-304.42,144-358.73l100.28-34.7Z"/><path class="cls-56" d="M1867.69,2177.88s57.64,85.73,62.37,124.84-15.79,55-76.27,57.62-221.94,2.58-221.94,2.58L1494,2245.15s100.42-35.83,126.53-46S1867.69,2177.88,1867.69,2177.88Z"/><path class="cls-57" d="M1388.28,2671s16.58,16.06,5.38,33.93c0,0-131.36,23.28-167,12.72,0,0,7.41-16.9,47.56-36.14l-3,2.27a4.8,4.8,0,0,0,3.17,8.61C1300.87,2690.84,1355.64,2686,1388.28,2671Z"/><path class="cls-58" d="M1618,1634.17c117.83-20,173.3,76.07,169.25,96.26a3.69,3.69,0,0,0,4.63,4.23c13.53-3.64,43.41-8.23,61.94,15,16.36,20.49,4.13,39.83-5.83,50.45a3.72,3.72,0,0,0,3.11,6.29c24.87-3.14,78.91-3.89,87.75,46.73,8.25,47.21-24.61,60.52-44.1,64.27a3.7,3.7,0,0,0-1.23,6.77c9.72,6.17,21,18.91,16.43,44.06-7.13,39.42-84.42,36.2-93.46,35.68a3.64,3.64,0,0,1-1.61-.48l-123.8-70.61a3.72,3.72,0,0,1-1.82-2.6l-25-144.34a3.72,3.72,0,0,1,1-3.22l-80.71-113.89C1555.24,1664.45,1616.62,1634.4,1618,1634.17Z"/><path class="cls-59" d="M1711.8,2166.53s-67.12-63.91-100.16-106.25a89.82,89.82,0,0,1-15.21-80.84c15.08-50.82,41.89-103.46,44.34-111.65,3.75-12.56,79-12,79-12s148.1,96.12,206.29,258.94L1860.72,2135s-38.67-64.88-76.88-106.12c0,0,66.11,87.34,68.44,123.09Z"/><path class="cls-60" d="M1631.67,1797.61c.79,2.61,20.43,67.73,22,69.08s43.08,3.59,62.63-9.78L1667.76,1762Z"/><path class="cls-61" d="M1552.92,1713.93s-9.49,37.31,16.77,87.48,56,50.12,72.25,34.06,36.3-43.31,31.54-91.82S1566.63,1666.48,1552.92,1713.93Z"/><path class="cls-62" d="M1637.14,1746.29s-43.58-66.62-84.44-14.19l-.74,19.07s-47.86-5.68-39.48-49.57,49.74-71.32,103-52.31,83.79,38.5,87.23,76.68-26.93,29.8-26.93,29.8-9.91-26.88-24-29.67-10.42,18.17-10.42,18.17Z"/><path class="cls-63" d="M1648.3,1745.4s-22.6-34.11.56-39.2,19.57,33.24,17.07,47.42Z"/><path class="cls-64" d="M1575.06,2171.28l49.32-47.53,68.22,28.82s67.91,10.52,106.78,0l38.87-10.52,87.83-27.34,13.79,39a23.47,23.47,0,0,1-8.58,27c-7.6,5.4-16.51,11.33-22.18,13.82-11.57,5.06-285.13-3.5-285.13-3.5Z"/><path class="cls-65" d="M1761.69,2193.69H1761l-286.08-.31a12.8,12.8,0,1,1,0-25.61l286.08.31a12.8,12.8,0,0,1,.63,25.59Z"/><path class="cls-66" d="M1217.78,1933.95H1456a45.41,45.41,0,0,1,41.07,26l110.14,233.55H1311.16a27.6,27.6,0,0,1-25.67-17.45L1200.09,1960A19,19,0,0,1,1217.78,1933.95Z"/><ellipse class="cls-5" cx="1367.76" cy="2059.44" rx="18.77" ry="30.51" transform="translate(-565.2 518.1) rotate(-17.84)"/><path class="cls-67" d="M2087.84,2668.9a348,348,0,0,1,4.19,36.46,15.7,15.7,0,0,1-14.15,16.58c-29.28,2.84-95.93,8.08-138.49,1.94a7.14,7.14,0,0,1-3.92-12.29c17.55-16.35,59.93-48.15,129.68-55.1Z"/><path class="cls-68" d="M2102.4,2631.32l-14.8,36.29a12.09,12.09,0,0,1-12.42,7.51,65.93,65.93,0,0,1-12.09-2.34,15.89,15.89,0,0,1-10.57-19.76l11.17-37.38Z"/><path class="cls-69" d="M2355.51,2697.8s-29.65,24.8-41.2,56.62a13.53,13.53,0,0,0,12.85,18h61a14.39,14.39,0,0,0,14.22-16.83C2398.5,2733.6,2387.29,2697.9,2355.51,2697.8Z"/><path class="cls-70" d="M2392.23,2665.52s-6,26.51-10.59,44a5.6,5.6,0,0,1-7.32,3.82c-9.23-3.3-16.74-4.76-22.21-4a4.32,4.32,0,0,1-4.76-4.31l-.57-44Z"/><path class="cls-71" d="M2234.56,2069.11l-180.32,550.12s34.59,22.65,51.06,21.71l214.18-442.11s37.48,272.41,19.32,468l61.35,4.68s99.75-499.78,24.2-671Z"/><path class="cls-5" d="M2318.33,2194.08h.22a1.75,1.75,0,0,0,1.51-2l-7-55.54a1.75,1.75,0,0,0-3.46.44l7,55.54A1.75,1.75,0,0,0,2318.33,2194.08Z"/><path class="cls-72" d="M2200.76,1585s146.1,13,125.43,117.07c0,0,80.76,152,118.51,331a10.53,10.53,0,0,1-8.54,12.51l-243.3,41.66a13.1,13.1,0,0,1-14.89-9.63L2119.84,1853l-22.65,104.46-72-18.75,60.59-306.94S2094.25,1587,2200.76,1585Z"/><path class="cls-73" d="M2118.6,1842.94a1.81,1.81,0,0,0,1.77-2.2l-20.28-93.12a1.81,1.81,0,0,0-3.54.77l20.28,93.12A1.81,1.81,0,0,0,2118.6,1842.94Z"/><path class="cls-74" d="M2133.29,2120a34.73,34.73,0,0,1,25.12-3.27l16.93,4.21a6.13,6.13,0,0,0,7.58-5.27l17.52-155.92c21.9,10.4,53.5,9.16,63.92,8.4L2224,2152H2082.95Z"/><path class="cls-75" d="M1758.42,1781.84l4.26-14.17a28,28,0,0,1,16.39-17.93l77.13-31s1.16-9.89-16.3-16.61-13.38-26.28-13.38-26.28,23.86,10.88,58.78,28.14c20,9.87,31.18,27.3,37.12,40.41l174.77,213.06-20.52,14.1a54.78,54.78,0,0,1-79.42-19.49l-94.68-181.55C1855,1784.77,1806.93,1787.51,1758.42,1781.84Z"/><path class="cls-76" d="M2153.43,1485.65l44.93,125.76s-39.79,31.11-68.83,20.59l-22.64-72.09S2124.19,1471.8,2153.43,1485.65Z"/><path class="cls-77" d="M2019.32,1440.48c0,1.94,43.28,122.53,43.28,122.53l68.33-26.18-24-120.39S2019.32,1408,2019.32,1440.48Z"/><path class="cls-78" d="M2094.91,1445.77l17.62,62.39a8.94,8.94,0,0,1,.34,2.44c0,5.09-1.25,22.6-19.09,20.22-16.18-2.16-31-3.89-40.4.54a9,9,0,0,0-4.67,11.25c3.94,11,13.26,35.48,24.61,55.55a9,9,0,0,0,11.62,3.72c12.83-5.84,39.56-18.91,58.59-34.46a9.06,9.06,0,0,0,3.2-8.69c-3-16-11.92-64.5-12.31-78.41-.37-13.06,14.28-23,20.73-26.77a8.9,8.9,0,0,0,4.19-5.63c2-8.4,3.74-27.42-20.52-31.62a9.07,9.07,0,0,1-7.36-10.79c2.05-10.05,1.4-24.84-17.69-30.29-19.4-5.54-31.61,6.14-37.82,15.09a9.06,9.06,0,0,1-11.23,3c-2.29-1-5.06-1.07-8,1.44a8.92,8.92,0,0,1-13-2c-5.66-8.33-15.93-16.64-33.33-11-30.87,10-29.4,45.58-18.08,64.93s44.17,6.62,59.73-6.2c11.83-9.75,29.83-3.92,37.78-.56A9,9,0,0,1,2094.91,1445.77Z"/><path class="cls-79" d="M2140.62,1503.08s-18.27-34.56-6.19-45.42,32.55-9.08,32,18C2165.75,1509.24,2140.62,1503.08,2140.62,1503.08Z"/><path class="cls-80" d="M2250.18,1970.54a175.2,175.2,0,0,0,17.86-.84l1.3-.14,53.2-248a1.81,1.81,0,1,0-3.54-.76l-52.65,245.45c-7.92.7-50.19,3.5-72.51-12.31l46.08-215.49-9.62-18.13a1.81,1.81,0,0,0-3.2,1.7l9,17-46.3,216.48.92.69C2206.85,1968.25,2232.83,1970.54,2250.18,1970.54Z"/><path class="cls-5" d="M655.37,2726.74a8.59,8.59,0,0,1-3.66-.83c-4.7-2.21-6.87-8.16-4.85-13.29l194.39-493.24c2-5.13,7.47-7.5,12.18-5.3s6.87,8.16,4.85,13.29L663.89,2720.62A9.28,9.28,0,0,1,655.37,2726.74Z"/><path class="cls-5" d="M874.36,2726.74a9.28,9.28,0,0,1-8.52-6.12L671.45,2227.38c-2-5.13.15-11.08,4.85-13.29s10.15.16,12.18,5.3l194.39,493.24c2,5.13-.15,11.08-4.85,13.29A8.58,8.58,0,0,1,874.36,2726.74Z"/><path class="cls-5" d="M1974.66,2726.74a8.59,8.59,0,0,1-3.66-.83c-4.7-2.21-6.87-8.16-4.85-13.29l194.39-493.24c2-5.13,7.47-7.5,12.18-5.3s6.87,8.16,4.85,13.29l-194.39,493.24A9.28,9.28,0,0,1,1974.66,2726.74Z"/><path class="cls-5" d="M2193.65,2726.74a9.28,9.28,0,0,1-8.52-6.12l-194.39-493.24c-2-5.13.15-11.08,4.85-13.29s10.15.16,12.18,5.3l194.39,493.24c2,5.13-.15,11.08-4.85,13.29A8.59,8.59,0,0,1,2193.65,2726.74Z"/><path class="cls-81" d="M1946.45,2184.55H2228V2155.5H1946.45C1952.48,2155.5,1952.48,2184.55,1946.45,2184.55Z"/><path class="cls-82" d="M2224.66,2184.55a3.35,3.35,0,0,0,3.34-3.34v-22.37a3.35,3.35,0,0,0-3.34-3.34H1941.21a3.29,3.29,0,1,1,0-6.57h302.91a12.16,12.16,0,0,1,12.16,12.16v18.57a11.46,11.46,0,0,1-11.46,11.46H1941.21a3.29,3.29,0,1,1,0-6.57Z"/><path class="cls-5" d="M2268.82,2204.14c.95-3.24-.34-6.6-3.51-9.15s-7.89-4-12.87-4h-1687c-6.55,0-12.65,2.21-16.18,5.87s-4,8.26-1.26,12.2l18.28,26.25c4.19,6,13.26,9.86,23.24,9.86H2240.86c9.28,0,17.27-4.37,19-10.41Z"/><g class="cls-83"><path class="cls-81" d="M1348.09,482.91a9.87,9.87,0,0,1-7.66-11.68c2.16-10.37,3.9-21,5.17-31.57a9.87,9.87,0,0,1,10.8-8.64l.19,0a9.88,9.88,0,0,1,8.62,11c-1.34,11.13-3.17,22.31-5.45,33.24a9.88,9.88,0,0,1-10.65,7.81A9.53,9.53,0,0,1,1348.09,482.91Zm.19-95.16c-.18-10.65-.82-21.38-1.89-31.93a9.87,9.87,0,1,1,19.65-2c1.13,11.09,1.8,22.4,2,33.6a9.88,9.88,0,0,1-9.71,10,10.07,10.07,0,0,1-1.17,0A9.88,9.88,0,0,1,1348.28,387.75Zm-10.76-83.11c-2.54-10.31-5.55-20.63-9-30.69a9.88,9.88,0,1,1,18.7-6.35c3.6,10.59,6.77,21.47,9.44,32.32a9.88,9.88,0,1,1-19.18,4.72ZM1308.45,226c-4.78-9.49-10-18.89-15.61-27.93a9.88,9.88,0,1,1,16.81-10.36c5.87,9.52,11.39,19.41,16.43,29.4a9.88,9.88,0,0,1-17.64,8.89Zm-45.86-70.18c-6.76-8.17-14-16.18-21.41-23.78a9.88,9.88,0,1,1,14.11-13.82c7.84,8,15.42,16.42,22.52,25a9.87,9.87,0,1,1-15.22,12.58Zm-60.25-58.28c-8.41-6.49-17.2-12.69-26.13-18.45a9.88,9.88,0,0,1,10.7-16.61c9.4,6.05,18.65,12.59,27.5,19.42a9.88,9.88,0,0,1-12.07,15.64Zm-361-64.5a9.88,9.88,0,0,1,6.2-12.52C858.12,17,869,13.82,879.89,11.16a9.87,9.87,0,0,1,4.68,19.19c-10.33,2.52-20.67,5.52-30.72,8.92a9.87,9.87,0,0,1-12.51-6.2Zm289.38,21c-9.64-4.45-19.58-8.54-29.57-12.15a9.88,9.88,0,1,1,6.72-18.57c10.51,3.8,21,8.11,31.13,12.8a9.87,9.87,0,1,1-8.29,17.93ZM925,12.74a9.88,9.88,0,0,1,8.84-10.81C944.93.82,956.24.17,967.43,0a9.88,9.88,0,1,1,.3,19.75c-10.64.16-21.39.77-31.95,1.83A9.88,9.88,0,0,1,925,12.74Zm126.22,15c-10.38-2.18-21-3.95-31.55-5.24a9.87,9.87,0,0,1,2.19-19.63l.21,0c11.11,1.36,22.29,3.21,33.21,5.51a9.88,9.88,0,0,1-3,19.49C1051.89,27.89,1051.54,27.84,1051.19,27.77Z"/><path class="cls-81" d="M786.28,67.78a9.82,9.82,0,0,0,5.78-1.19c4.45-2.47,9-4.89,13.6-7.2a9.87,9.87,0,1,0-8.88-17.64c-4.81,2.42-9.63,5-14.31,7.57a9.88,9.88,0,0,0,3.81,18.46Z"/></g><g class="cls-83"><path class="cls-81" d="M601,305.1a9.88,9.88,0,0,0,10.53-7.29c1.31-4.92,2.74-9.9,4.26-14.79a9.88,9.88,0,1,0-18.86-5.86c-1.6,5.15-3.11,10.39-4.48,15.57A9.87,9.87,0,0,0,601,305.1Z"/><path class="cls-81" d="M914.24,784.37a9.88,9.88,0,1,1,2.95-19.53c10.27,1.55,20.76,2.69,31.31,3.4a9.88,9.88,0,0,1-1.33,19.71q-6.85-.46-13.64-1.15C927.08,786.15,920.59,785.33,914.24,784.37Zm76.22-5.64a9.87,9.87,0,0,1,9.18-10.52c10.45-.72,21-1.88,31.29-3.47a9.87,9.87,0,1,1,3,19.52c-10.86,1.67-21.95,2.9-32.94,3.65a9.86,9.86,0,0,1-10.53-9.18Zm-128.76-6C851.17,769.6,840.62,766,830.35,762a9.88,9.88,0,1,1,7.17-18.4c9.75,3.8,19.77,7.22,29.77,10.17a9.88,9.88,0,0,1-5.59,18.94Zm212.46-6.89a9.87,9.87,0,0,1,6.64-12.29c10-3,20-6.44,29.75-10.26a9.87,9.87,0,0,1,7.22,18.38c-10.24,4-20.78,7.66-31.33,10.81a9.86,9.86,0,0,1-12.29-6.64ZM781.71,739.07c-9.59-5.35-19.08-11.18-28.22-17.34a9.87,9.87,0,1,1,11-16.38c8.68,5.85,17.7,11.39,26.81,16.47a9.88,9.88,0,1,1-9.62,17.25ZM711,688.71c-8.21-7.33-16.2-15.1-23.76-23.08A9.88,9.88,0,1,1,701.6,652c7.18,7.58,14.78,15,22.58,21.93A9.87,9.87,0,1,1,711,688.71Zm-58-64.58c-6.42-9-12.53-18.27-18.17-27.7a9.88,9.88,0,1,1,17-10.13c5.35,9,11.16,17.82,17.27,26.33A9.88,9.88,0,0,1,653,624.13Zm-42.56-75.7c-4.31-10.14-8.23-20.58-11.66-31a9.87,9.87,0,1,1,18.76-6.16c3.26,9.92,7,19.83,11.07,29.46a9.88,9.88,0,1,1-18.18,7.72Zm-24.9-83.24c-2-10.81-3.49-21.85-4.53-32.81a9.88,9.88,0,0,1,19.66-1.88c1,10.41,2.44,20.9,4.31,31.17a9.87,9.87,0,1,1-19.43,3.52Zm-6-86.59c.32-8.09.9-16.27,1.71-24.31q.44-4.37,1-8.7a9.76,9.76,0,0,1,11-8.59,9.87,9.87,0,0,1,8.59,11q-.51,4.12-.93,8.27c-.77,7.65-1.32,15.42-1.63,23.11A9.87,9.87,0,0,1,589,388.87l-.61,0A9.87,9.87,0,0,1,579.52,378.61Z"/><path class="cls-81" d="M1160.82,739.67a9.84,9.84,0,0,0,5.82-1.21c4.66-2.62,9.36-5.38,14-8.22a9.88,9.88,0,1,0-10.37-16.81c-4.37,2.7-8.83,5.32-13.25,7.81a9.87,9.87,0,0,0,3.85,18.43Z"/></g><path class="cls-81" d="M1206.74,576.71a4.62,4.62,0,0,0,.88-5.29L1183,520.93a244.72,244.72,0,0,0,30.36-73.24l53.07-18.31a4.62,4.62,0,0,0,3.11-4.36V357.64a4.61,4.61,0,0,0-3.11-4.36L1213.36,335A244.7,244.7,0,0,0,1183,261.74l24.6-50.5a4.62,4.62,0,0,0-.89-5.28l-47.65-47.64a4.61,4.61,0,0,0-5.29-.88L1103.27,182A244.66,244.66,0,0,0,1030,151.67L1011.72,98.6a4.61,4.61,0,0,0-4.36-3.11H940a4.62,4.62,0,0,0-4.36,3.11l-18.3,53.08a244.67,244.67,0,0,0-73.23,30.37l-50.5-24.6a4.61,4.61,0,0,0-5.28.89L740.65,206a4.62,4.62,0,0,0-.89,5.28l24.61,50.5A244.67,244.67,0,0,0,734,335l-53.07,18.31a4.61,4.61,0,0,0-3.11,4.36v67.38a4.61,4.61,0,0,0,3.11,4.36L734,447.73A244.71,244.71,0,0,0,764.39,521l-24.6,50.5a4.61,4.61,0,0,0,.89,5.29l47.65,47.64a4.62,4.62,0,0,0,5.28.89l50.5-24.61A244.71,244.71,0,0,0,917.36,631l18.31,53.07a4.62,4.62,0,0,0,4.36,3.11h67.38a4.62,4.62,0,0,0,4.36-3.11l18.3-53.07a244.72,244.72,0,0,0,73.23-30.37l50.5,24.6a4.62,4.62,0,0,0,5.28-.89Z"/><path class="cls-84" d="M957.12,457a67.69,67.69,0,1,1,9.8,1.72A67.81,67.81,0,0,1,957.12,457Zm-10-110.26A51.93,51.93,0,1,0,986.4,341a52.72,52.72,0,0,0-7.59-1.33A51.56,51.56,0,0,0,947.07,346.76Z"/><path class="cls-85" d="M955.69,555.94a169.75,169.75,0,0,0,17.09.86h0q2.71,0,5.43-.09a167.66,167.66,0,0,0,26.51-3l.36-.07,1-.2,2-.41a3.95,3.95,0,1,0-1.66-7.72,158.83,158.83,0,0,1-167.47-70,157.67,157.67,0,0,1-24.78-85,160.87,160.87,0,0,1,.82-16.31A158.68,158.68,0,0,1,972.75,231.61c87.51,0,158.65,71.16,158.66,158.63a158.69,158.69,0,0,1-22.47,81.46,4,4,0,1,0,6.78,4.06,166.63,166.63,0,0,0,23.6-85.52c0-91.84-74.75-166.54-166.56-166.53A166.59,166.59,0,0,0,807.08,373.15a170.3,170.3,0,0,0-.86,17.12A166.58,166.58,0,0,0,955.69,555.94Z"/><g class="cls-83"><path class="cls-81" d="M1658.2,775.93a6.1,6.1,0,0,0,6.26-3.77c2-4.8,3.79-9.72,5.45-14.63a6.1,6.1,0,0,0-11.55-3.91c-1.58,4.68-3.33,9.37-5.19,13.95a6.1,6.1,0,0,0,3.35,7.95A6.17,6.17,0,0,0,1658.2,775.93Z"/><path class="cls-81" d="M1671.2,730.93a6.1,6.1,0,0,1-4.75-7.2,253.53,253.53,0,0,0,3.87-25.3q.27-2.68.48-5.38a6.1,6.1,0,0,1,6.57-5.59A6.31,6.31,0,0,1,1683,694q-.23,2.82-.51,5.62a264.87,264.87,0,0,1-4.06,26.52,6.1,6.1,0,0,1-6.58,4.84Zm.19-68.85a252.83,252.83,0,0,0-3.2-30.8,6.1,6.1,0,0,1,12-2,264.46,264.46,0,0,1,3.35,32.29,6.1,6.1,0,0,1-5.84,6.35,6.23,6.23,0,0,1-.88,0A6.1,6.1,0,0,1,1671.39,662.09Zm-10.18-61A250.42,250.42,0,0,0,1650.54,572a6.1,6.1,0,0,1,11.17-4.9,263.12,263.12,0,0,1,11.19,30.5,6.1,6.1,0,0,1-11.69,3.49Zm-24.85-56.62a251.67,251.67,0,0,0-17.46-25.58,6.1,6.1,0,0,1,9.63-7.49,264.47,264.47,0,0,1,18.31,26.82,6.1,6.1,0,0,1-10.48,6.24Zm-37.92-48.84a254.14,254.14,0,0,0-23.15-20.57,6.1,6.1,0,1,1,7.53-9.59A266.88,266.88,0,0,1,1607.08,487a6.1,6.1,0,0,1-8.65,8.61ZM1549.8,457.5a250.22,250.22,0,0,0-27.44-14.29,6.1,6.1,0,0,1,5-11.15,262.51,262.51,0,0,1,28.78,15,6.1,6.1,0,0,1-6.3,10.45Zm-56.46-25.09a250.71,250.71,0,0,0-30.14-7.12,6.1,6.1,0,0,1,2.07-12,264.49,264.49,0,0,1,31.6,7.47,6.1,6.1,0,0,1-3.53,11.68Zm-98.44-15.69a6.1,6.1,0,0,1,5.63-6.54,265.34,265.34,0,0,1,28.2-.6c1.43,0,2.85.1,4.28.16a6.1,6.1,0,0,1-.6,12.19c-1.33-.07-2.67-.12-4-.16a253,253,0,0,0-26.93.57,6,6,0,0,1-1.08,0A6.1,6.1,0,0,1,1394.9,416.72Z"/></g><g class="cls-83"><path class="cls-81" d="M1390.2,934.59a265.7,265.7,0,0,1-31.45-5.54,6.1,6.1,0,1,1,2.84-11.87,252.29,252.29,0,0,0,30,5.28,6.1,6.1,0,0,1-1.31,12.13Zm25.77-4.35a6.1,6.1,0,0,1,6.06-6.13,255,255,0,0,0,30.41-2A6.1,6.1,0,0,1,1454,934.2a266.77,266.77,0,0,1-31.87,2.11,6.17,6.17,0,0,1-.66,0A6.1,6.1,0,0,1,1416,930.25Zm-87.78-10.51a264.66,264.66,0,0,1-29.18-13,6.1,6.1,0,0,1,5.62-10.83,253,253,0,0,0,27.84,12.38,6.1,6.1,0,1,1-4.28,11.42ZM1478,923.83a6.1,6.1,0,0,1,4.41-7.41,250.51,250.51,0,0,0,29-9.29,6.1,6.1,0,1,1,4.42,11.37,261.61,261.61,0,0,1-30.43,9.75,6.1,6.1,0,0,1-7.41-4.41Zm-206.33-33.49a265.25,265.25,0,0,1-25.2-19.61,6.1,6.1,0,0,1,8.06-9.16,250.93,250.93,0,0,0,24,18.71,6.1,6.1,0,0,1-6.9,10.07Zm-47.86-42.11A266.67,266.67,0,0,1,1204,823.15a6.1,6.1,0,0,1,10-7,254.87,254.87,0,0,0,18.88,23.92,6.1,6.1,0,0,1-9.11,8.12Zm-36.41-52.36a263.64,263.64,0,0,1-13.19-29.1,6.1,6.1,0,0,1,11.4-4.35,249.47,249.47,0,0,0,12.58,27.75,6.1,6.1,0,0,1-2.54,8.24,6,6,0,0,1-3.46.68A6.1,6.1,0,0,1,1187.37,795.86Z"/><path class="cls-81" d="M1541.58,905.67a6.08,6.08,0,0,0,3.5-.7c4.6-2.47,9.14-5.1,13.51-7.79a6.1,6.1,0,1,0-6.41-10.38c-4.16,2.57-8.5,5.07-12.89,7.44a6.1,6.1,0,0,0,2.28,11.44Z"/></g><path class="cls-81" d="M1576.35,794.88a3.09,3.09,0,0,0,.59-3.54l-16.47-33.79a163.76,163.76,0,0,0,20.31-49l35.51-12.25a3.09,3.09,0,0,0,2.08-2.92V648.28a3.09,3.09,0,0,0-2.08-2.92l-35.52-12.24a163.74,163.74,0,0,0-20.32-49l16.46-33.79a3.09,3.09,0,0,0-.59-3.54l-31.89-31.88a3.09,3.09,0,0,0-3.54-.59l-33.79,16.47a163.73,163.73,0,0,0-49-20.32L1445.86,475a3.09,3.09,0,0,0-2.92-2.08h-45.09a3.09,3.09,0,0,0-2.92,2.08l-12.24,35.52a163.71,163.71,0,0,0-49,20.32l-33.8-16.46a3.09,3.09,0,0,0-3.54.59l-31.88,31.89a3.09,3.09,0,0,0-.59,3.54l16.47,33.79a163.72,163.72,0,0,0-20.32,49l-35.51,12.25a3.09,3.09,0,0,0-2.08,2.92v45.09a3.09,3.09,0,0,0,2.08,2.92L1260,708.57a163.74,163.74,0,0,0,20.32,49l-16.46,33.79a3.09,3.09,0,0,0,.59,3.54l31.89,31.88a3.09,3.09,0,0,0,3.54.59l33.79-16.47a163.74,163.74,0,0,0,49,20.32L1395,866.74a3.09,3.09,0,0,0,2.92,2.08H1443a3.09,3.09,0,0,0,2.92-2.08l12.24-35.51a163.75,163.75,0,0,0,49-20.32l33.8,16.46a3.09,3.09,0,0,0,3.54-.59Z"/><path class="cls-86" d="M1409.13,715.58a46,46,0,1,1,6.74,1.18A47.1,47.1,0,0,1,1409.13,715.58Zm-21.62-53a33.94,33.94,0,0,0,24.6,41.21h0a33.94,33.94,0,0,0,16.61-65.82,34.39,34.39,0,0,0-4.91-.86A34,34,0,0,0,1387.5,662.54Z"/><path class="cls-87" d="M1408.13,784.43q5.76.58,11.67.59a115.55,115.55,0,0,0,23.29-2.37l1-.22a6.1,6.1,0,1,0-2.57-11.92,103,103,0,0,1-21.74,2.31h-1.21A101.7,101.7,0,0,1,1370,760a103.27,103.27,0,0,1-22.13-16.58l-.16-.16-.5-.49a102,102,0,0,1-30.09-72.62,103.93,103.93,0,0,1,.53-10.56,102.71,102.71,0,1,1,190.32,63.27,6.1,6.1,0,1,0,10.47,6.27,114.91,114.91,0,1,0-212.92-70.79,117.33,117.33,0,0,0-.6,11.81A115.07,115.07,0,0,0,1408.13,784.43Z"/></g></g></svg>